HIERARCHY
ROOT joint_Root
{
	OFFSET 0.0 0.0 0.0
	CHANNELS 6 Xposition Yposition Zposition Zrotation Xrotation Yrotation 
	JOINT Hips
	{
		OFFSET -0.726466 93.3139 -2.00062
		CHANNELS 6 Xposition Yposition Zposition Zrotation Xrotation Yrotation 
		JOINT Spine
		{
			OFFSET 15.7357 0.0 0.0
			CHANNELS 6 Xposition Yposition Zposition Zrotation Xrotation Yrotation 
			JOINT Chest
			{
				OFFSET 8.98455 -0.406207 0.0
				CHANNELS 6 Xposition Yposition Zposition Zrotation Xrotation Yrotation 
				JOINT Neck
				{
					OFFSET 16.3773 0.0 0.0
					CHANNELS 6 Xposition Yposition Zposition Zrotation Xrotation Yrotation 
					JOINT Head
					{
						OFFSET 6.45672 0.0 0.0
						CHANNELS 6 Xposition Yposition Zposition Zrotation Xrotation Yrotation 
						End Site
						{
							OFFSET 0.0 0.0 0.0
						}
					}
				}
				JOINT Shoulder_L
				{
					OFFSET 12.9942 -0.242716 4.98039
					CHANNELS 6 Xposition Yposition Zposition Zrotation Xrotation Yrotation 
					JOINT UpperArm_L
					{
						OFFSET 5.34809 0.0 0.0
						CHANNELS 6 Xposition Yposition Zposition Zrotation Xrotation Yrotation 
						JOINT LowerArm_L
						{
							OFFSET 24.3286 1.87007e-05 0.0
							CHANNELS 6 Xposition Yposition Zposition Zrotation Xrotation Yrotation 
							JOINT Hand_L
							{
								OFFSET 22.2916 0.0 0.0
								CHANNELS 6 Xposition Yposition Zposition Zrotation Xrotation Yrotation 
								End Site
								{
									OFFSET 0.0 0.0 0.0
								}
							}
						}
					}
				}
				JOINT Shoulder_R
				{
					OFFSET 12.9945 -0.242716 -4.98039
					CHANNELS 6 Xposition Yposition Zposition Zrotation Xrotation Yrotation 
					JOINT UpperArm_R
					{
						OFFSET -5.34813 0.0 0.0
						CHANNELS 6 Xposition Yposition Zposition Zrotation Xrotation Yrotation 
						JOINT LowerArm_R
						{
							OFFSET -24.3289 0.000322201 0.0
							CHANNELS 6 Xposition Yposition Zposition Zrotation Xrotation Yrotation 
							JOINT Hand_R
							{
								OFFSET -22.2915 -0.000108084 0.0
								CHANNELS 6 Xposition Yposition Zposition Zrotation Xrotation Yrotation 
								End Site
								{
									OFFSET 0.0 0.0 0.0
								}
							}
						}
					}
				}
			}
		}
		JOINT UpperLeg_L
		{
			OFFSET -2.19248 -6.46944 0.0
			CHANNELS 6 Xposition Yposition Zposition Zrotation Xrotation Yrotation 
			JOINT LowerLeg_L
			{
				OFFSET 39.0811 0.0 -1.23785e-05
				CHANNELS 6 Xposition Yposition Zposition Zrotation Xrotation Yrotation 
				JOINT Foot_L
				{
					OFFSET 40.9854 0.0 -1.26872e-05
					CHANNELS 6 Xposition Yposition Zposition Zrotation Xrotation Yrotation 
					JOINT Toes_L
					{
						OFFSET 11.7543 0.0 0.0
						CHANNELS 6 Xposition Yposition Zposition Zrotation Xrotation Yrotation 
						End Site
						{
							OFFSET 0.0 0.0 0.0
						}
					}
				}
			}
		}
		JOINT UpperLeg_R
		{
			OFFSET -2.19251 6.46944 0.0
			CHANNELS 6 Xposition Yposition Zposition Zrotation Xrotation Yrotation 
			JOINT LowerLeg_R
			{
				OFFSET -39.0811 -0.00228153 -0.0401928
				CHANNELS 6 Xposition Yposition Zposition Zrotation Xrotation Yrotation 
				JOINT Foot_R
				{
					OFFSET -40.9854 0.0 0.0
					CHANNELS 6 Xposition Yposition Zposition Zrotation Xrotation Yrotation 
					JOINT Toes_R
					{
						OFFSET -11.7543 0.0 0.0
						CHANNELS 6 Xposition Yposition Zposition Zrotation Xrotation Yrotation 
						End Site
						{
							OFFSET 0.0 0.0 0.0
						}
					}
				}
			}
		}
	}
}
MOTION
Frames:	4
Frame Time:	0.0333333
0.000000 0.000000 0.000000 0.000000 0.000000 -0.000000 0.101972 91.704700 0.384716 87.859000 -2.575200 5.607290 15.735700 0.000005 -0.000001 84.753600 85.230300 -83.851000 8.984550 -0.406207 -0.000000 1.741440 -0.919200 1.817500 16.377300 -0.000001 -0.000001 0.936455 -2.771390 1.012910 6.456720 -0.000001 -0.000000 -2.597180 -1.153200 -1.386810 12.994200 -0.242716 4.980390 -90.222600 0.700442 -72.369300 5.348090 -0.000007 -0.000001 -65.362500 47.317100 -12.748000 24.328600 0.000019 0.000005 3.238500 6.038250 -28.275400 22.291600 -0.000001 0.000005 7.237950 5.649520 -14.969600 12.994500 -0.242716 -4.980390 87.674800 6.559330 -70.431700 -5.348130 -0.000001 -0.000004 -64.722800 36.061000 -12.697700 -24.328900 0.000322 -0.000009 1.668490 4.845980 -19.036200 -22.291500 -0.000108 -0.000004 4.441910 5.552580 -8.823380 -2.192480 -6.469440 -0.000000 -168.599000 -17.668000 -0.371086 39.081100 -0.000007 -0.000012 -0.221451 0.493581 24.164300 40.985400 -0.000006 -0.000013 -7.131450 -3.111060 -65.829700 11.754300 -0.000000 0.000003 -0.000134 -0.001323 -16.628000 -2.192510 6.469440 -0.000001 172.345000 20.606200 -178.248000 -39.081100 -0.002282 -0.040193 -0.042786 0.120492 20.939000 -40.985400 0.000008 0.000006 -4.321440 1.359020 -64.272400 -11.754300 -0.000006 -0.000006 -0.003475 -0.045862 -18.438400
0.000000 0.000000 0.000000 0.000000 0.000000 -0.000000 0.122419 91.711800 0.315438 87.869000 -2.608670 5.589230 15.735700 0.000005 -0.000001 85.083500 85.167900 -84.226600 8.984550 -0.406207 -0.000000 1.869820 -0.871811 1.726490 16.377300 -0.000001 -0.000001 0.833769 -2.681970 0.928690 6.456720 -0.000001 -0.000000 -2.647420 -1.133250 -1.379050 12.994200 -0.242716 4.980390 -90.229200 0.718173 -72.300100 5.348090 -0.000007 -0.000001 -63.270700 49.519500 -13.368700 24.328600 0.000019 0.000005 3.422240 5.806230 -30.588700 22.291600 -0.000001 0.000005 7.311290 5.655950 -15.614600 12.994500 -0.242716 -4.980390 87.701100 6.464260 -70.374500 -5.348130 -0.000001 -0.000004 -64.521700 35.711800 -12.553300 -24.328900 0.000322 -0.000009 1.452990 3.703580 -21.461500 -22.291500 -0.000108 -0.000004 5.903750 5.561920 -9.278260 -2.192480 -6.469440 -0.000000 -168.648000 -17.694200 -0.442666 39.081100 -0.000007 -0.000012 -0.219761 0.489618 24.172900 40.985400 -0.000006 -0.000013 -7.113060 -3.180780 -65.792800 11.754300 -0.000000 0.000003 -0.000121 -0.001207 -16.623700 -2.192510 6.469440 -0.000001 172.349000 20.619000 -178.333000 -39.081100 -0.002282 -0.040193 -0.042223 0.118960 20.948900 -40.985400 0.000008 0.000006 -4.290770 1.377720 -64.219200 -11.754300 -0.000006 -0.000006 -0.003672 -0.047984 -18.524800
0.000000 0.000000 0.000000 0.000000 0.000000 -0.000000 0.141265 91.723000 0.253493 87.864900 -2.673490 5.580210 15.735700 0.000005 -0.000001 84.900500 85.095900 -84.091300 8.984550 -0.406207 -0.000000 2.010570 -0.911868 1.632960 16.377300 -0.000001 -0.000001 0.722578 -2.577190 0.863755 6.456720 -0.000001 -0.000000 -2.773590 -1.011570 -1.460560 12.994200 -0.242716 4.980390 -90.251400 0.777337 -72.076500 5.348090 -0.000007 -0.000001 -60.115500 52.319600 -14.307700 24.328600 0.000019 0.000005 3.565520 5.271940 -34.144800 22.291600 -0.000001 0.000005 7.389500 5.662390 -16.340300 12.994500 -0.242716 -4.980390 87.718900 6.341530 -70.169000 -5.348130 -0.000001 -0.000004 -64.176100 34.568400 -12.670900 -24.328900 0.000322 -0.000009 1.175090 2.543460 -24.834900 -22.291500 -0.000108 -0.000004 7.154300 5.569970 -9.684690 -2.192480 -6.469440 -0.000000 -168.673000 -17.693000 -0.472015 39.081100 -0.000007 -0.000012 -0.218376 0.487181 24.144400 40.985400 -0.000006 -0.000013 -7.092420 -3.211340 -65.751200 11.754300 -0.000000 0.000003 -0.000139 -0.001360 -16.629300 -2.192510 6.469440 -0.000001 172.357000 20.613400 -178.370000 -39.081100 -0.002282 -0.040193 -0.042328 0.119574 20.894800 -40.985400 0.000008 0.000006 -4.279210 1.426040 -64.139100 -11.754300 -0.000006 -0.000006 -0.003558 -0.046761 -18.475000
0.000000 0.000000 0.000000 0.000000 0.000000 -0.000000 0.176960 91.742100 0.164526 87.865800 -2.789100 5.522520 15.735700 0.000005 -0.000001 84.779900 85.034400 -84.019800 8.984550 -0.406207 -0.000000 2.131020 -0.940303 1.536260 16.377300 -0.000001 -0.000001 0.705578 -2.437240 0.745066 6.456720 -0.000001 -0.000000 -3.038310 -0.848906 -1.577270 12.994200 -0.242716 4.980390 -90.244200 0.746554 -71.887700 5.348090 -0.000007 -0.000001 -56.300200 54.995600 -15.351000 24.328600 0.000019 0.000005 4.008180 4.959740 -39.020700 22.291600 -0.000001 0.000005 7.129580 5.670060 -17.387000 12.994500 -0.242716 -4.980390 87.752500 6.135800 -69.837600 -5.348130 -0.000001 -0.000004 -63.259100 33.180200 -13.484600 -24.328900 0.000322 -0.000009 1.010660 1.818430 -29.109000 -22.291500 -0.000108 -0.000004 8.298970 5.573750 -9.879100 -2.192480 -6.469440 -0.000000 -168.722000 -17.733300 -0.526816 39.081100 -0.000007 -0.000012 -0.218886 0.490017 24.070200 40.985400 -0.000006 -0.000013 -7.075930 -3.300530 -65.685200 11.754300 -0.000000 0.000003 -0.000125 -0.001246 -16.625100 -2.192510 6.469440 -0.000001 172.407000 20.515300 -178.490000 -39.081100 -0.002282 -0.040193 -0.041671 0.118419 20.803200 -40.985400 0.000008 0.000006 -4.337400 1.403450 -64.004500 -11.754300 -0.000006 -0.000006 -0.003680 -0.048073 -18.528400
